# xmcd
#
# Track frame offsets:
#	150
#	16097
#	30794
#	48029
#	61896
#	76186
#	92885
#	109725
#	126373
#	141592
#	155787
#	171562
#	184791
#	201856
#	219107
#
# Disc length: 3144 seconds
#
# Revision: 1
# Processed by: cddbd v1.5.2PL0 Copyright (c) Steve Scherf et al.
# Submitted via: audiograbber 1.83.01
#
DISCID=c70c460f
DTITLE=ALCYMAR MONTEIRO - FESTRILHAS - 1
DYEAR=1900
DGENRE=
TTITLE0=FESTRILHAS
TTITLE1=A DONA DO FORRÓ
TTITLE2=AURORA BOREAL
TTITLE3=CABRIOLA
TTITLE4=OLHOS VERDES CANAVIAIS
TTITLE5=SÃO JOÃO BRASILEIRO
TTITLE6=ESTRELA CADENTE
TTITLE7=ARRIÁ DAS ARABIAS
TTITLE8=REINO DA PEDRA DO REINO
TTITLE9=SÃO JOÃOZEAR
TTITLE10=MORENA BAIANA
TTITLE11=VAQUEIRO NOTA ZERO
TTITLE12=FESTA DE VAQUEJADA
TTITLE13=LINDO LAGO DO AMOR
TTITLE14=IMAGINÁRIO POPULAR
EXTD=
EXTT0=
EXTT1=
EXTT2=
EXTT3=
EXTT4=
EXTT5=
EXTT6=
EXTT7=
EXTT8=
EXTT9=
EXTT10=
EXTT11=
EXTT12=
EXTT13=
EXTT14=
PLAYORDER=
